<?xml version="1.0" encoding="utf-8"?>
<!-- Generator: Adobe Illustrator 26.3.1, SVG Export Plug-In . SVG Version: 6.00 Build 0)  -->
<svg version="1.1" id="Layer_1" xmlns="http://www.w3.org/2000/svg" xmlns:xlink="http://www.w3.org/1999/xlink" x="0px" y="0px"
	 viewBox="0 0 144.42 158.03" style="enable-background:new 0 0 144.42 158.03;" xml:space="preserve">
<style type="text/css">
	.st0{fill:#FCD689;}
	.st1{fill:#FFF09B;}
	.st2{fill:#FAF9CD;}
	.st3{fill:#FFFFFF;}
	.st4{fill:#8EDED9;}
	.st5{fill:#8CACDE;}
	.st6{fill:#9782EC;}
	.st7{fill:none;stroke:#FFFFFF;stroke-miterlimit:10;}
</style>
<g id="Flag">
	<path class="st0" d="M65.01,47.82c0,0,5.46,4.97,13.99,7.8c8.53,2.83,40.76,5.62,52.14,9.39c11.38,3.77,13.28,7.56,13.28,7.56
		l-16.27,49.07c0,0-1.9-3.79-13.28-7.56c-11.38-3.77-43.61-6.56-52.14-9.39s-13.99-7.8-13.99-7.8L65.01,47.82z"/>
	<path class="st1" d="M62.68,54.83c0,0,5.46,4.97,13.99,7.8c8.53,2.83,40.76,5.62,52.14,9.39s13.28,7.56,13.28,7.56l-13.94,42.06
		c0,0-1.9-3.79-13.28-7.56s-43.61-6.56-52.14-9.39s-13.99-7.8-13.99-7.8L62.68,54.83z"/>
	<path class="st2" d="M60.36,61.84c0,0,5.46,4.97,13.99,7.8s40.76,5.62,52.14,9.39s13.28,7.56,13.28,7.56l-11.62,35.05
		c0,0-1.9-3.79-13.28-7.56s-43.61-6.56-52.14-9.39s-13.99-7.8-13.99-7.8L60.36,61.84z"/>
	<path class="st3" d="M58.03,68.85c0,0,5.46,4.97,13.99,7.8s40.76,5.62,52.14,9.39s13.28,7.56,13.28,7.56l-9.29,28.04
		c0,0-1.9-3.79-13.28-7.56s-43.61-6.56-52.14-9.39s-13.99-7.8-13.99-7.8L58.03,68.85z"/>
	<path class="st4" d="M55.71,75.86c0,0,5.46,4.97,13.99,7.8s40.76,5.62,52.14,9.39s13.28,7.56,13.28,7.56l-6.97,21.03
		c0,0-1.9-3.79-13.28-7.56s-43.61-6.56-52.14-9.39s-13.99-7.8-13.99-7.8L55.71,75.86z"/>
	<path class="st5" d="M53.39,82.87c0,0,5.46,4.97,13.99,7.8s40.76,5.62,52.14,9.39s13.28,7.56,13.28,7.56l-4.65,14.02
		c0,0-1.9-3.79-13.28-7.56s-43.61-6.56-52.14-9.39s-13.99-7.8-13.99-7.8L53.39,82.87z"/>
	<path class="st6" d="M51.06,89.88c0,0,5.46,4.97,13.99,7.8s40.76,5.62,52.14,9.39c11.38,3.77,13.28,7.56,13.28,7.56l-2.32,7.01
		c0,0-1.9-3.79-13.28-7.56c-11.38-3.77-43.61-6.56-52.14-9.39s-13.99-7.8-13.99-7.8L51.06,89.88z"/>
	<path class="st7" d="M65.01,47.82c0,0,5.46,4.97,13.99,7.8c8.53,2.83,40.76,5.62,52.14,9.39c11.38,3.77,13.28,7.56,13.28,7.56
		l-16.27,49.07c0,0-1.9-3.79-13.28-7.56c-11.38-3.77-43.61-6.56-52.14-9.39s-13.99-7.8-13.99-7.8L65.01,47.82z"/>
</g>
<g id="Flagpole">
	<path class="st3" d="M63.75,119.6c-5.35,13.76-15.8,35.2-34.63,37.96c-30.23,4.42-33.64-23.55-24.99-45.28l23.79-66.42
		c9.76,7.61,22.1,3.57,29.02,0.44c-18.27,45.84-20.73,54.45-21.67,61.12c-2.45,18.94,15.58,13.77,22.3,2.86L63.75,119.6z
		 M33.91,14.9c4-18.63,31.41-21.01,29.71-0.14C62.97,35.99,28.82,40.97,33.91,14.9z"/>
</g>
</svg>
