<?xml version="1.0" encoding="utf-8"?>
<!-- Generator: Adobe Illustrator 26.3.1, SVG Export Plug-In . SVG Version: 6.00 Build 0)  -->
<svg version="1.1" id="Layer_1" xmlns="http://www.w3.org/2000/svg" xmlns:xlink="http://www.w3.org/1999/xlink" x="0px" y="0px"
	 viewBox="0 0 144.42 158.03" style="enable-background:new 0 0 144.42 158.03;" xml:space="preserve">
<style type="text/css">
	.st0{fill:#D12229;}
	.st1{fill:#F68A1E;}
	.st2{fill:#FDE01A;}
	.st3{fill:#007940;}
	.st4{fill:#24408E;}
	.st5{fill:#732982;}
	.st6{fill:none;stroke:#FFFFFF;stroke-miterlimit:10;}
	.st7{fill:#2B2B34;}
</style>
<g id="Pride_Flag_00000058560601779878874540000018022909630192747684_">
	<path class="st0" d="M65.01,47.82c0,0,5.46,4.97,13.99,7.8s40.76,5.62,52.14,9.39c11.38,3.77,13.28,7.56,13.28,7.56l-16.27,49.07
		c0,0-1.9-3.79-13.28-7.56s-43.61-6.56-52.14-9.39c-8.53-2.83-13.99-7.8-13.99-7.8L65.01,47.82z"/>
	<path class="st1" d="M62.29,55.99c0,0,5.46,4.97,13.99,7.8s40.76,5.62,52.14,9.39c11.38,3.77,13.28,7.56,13.28,7.56l-13.55,40.9
		c0,0-1.9-3.79-13.28-7.56s-43.61-6.56-52.14-9.39c-8.53-2.83-13.99-7.8-13.99-7.8L62.29,55.99z"/>
	<path class="st2" d="M59.58,64.17c0,0,5.46,4.97,13.99,7.8s40.76,5.62,52.14,9.39S139,88.92,139,88.92l-10.84,32.72
		c0,0-1.9-3.79-13.28-7.56s-43.61-6.56-52.14-9.39c-8.53-2.83-13.99-7.8-13.99-7.8L59.58,64.17z"/>
	<path class="st3" d="M56.87,72.35c0,0,5.46,4.97,13.99,7.8c8.53,2.83,40.76,5.62,52.14,9.39c11.38,3.77,13.28,7.56,13.28,7.56
		l-8.13,24.54c0,0-1.9-3.79-13.28-7.56s-43.61-6.56-52.14-9.39c-8.53-2.83-13.99-7.8-13.99-7.8L56.87,72.35z"/>
	<path class="st4" d="M54.16,80.53c0,0,5.46,4.97,13.99,7.8c8.53,2.83,40.76,5.62,52.14,9.39s13.28,7.56,13.28,7.56l-5.42,16.36
		c0,0-1.9-3.79-13.28-7.56s-43.61-6.56-52.14-9.39c-8.53-2.83-13.99-7.8-13.99-7.8L54.16,80.53z"/>
	<path class="st5" d="M51.45,88.71c0,0,5.46,4.97,13.99,7.8c8.53,2.83,40.76,5.62,52.14,9.39s13.28,7.56,13.28,7.56l-2.71,8.18
		c0,0-1.9-3.79-13.28-7.56s-43.61-6.56-52.14-9.39c-8.53-2.83-13.99-7.8-13.99-7.8L51.45,88.71z"/>
	<path class="st6" d="M65.01,47.82c0,0,5.46,4.97,13.99,7.8s40.76,5.62,52.14,9.39c11.38,3.77,13.28,7.56,13.28,7.56l-16.27,49.07
		c0,0-1.9-3.79-13.28-7.56s-43.61-6.56-52.14-9.39c-8.53-2.83-13.99-7.8-13.99-7.8L65.01,47.82z"/>
</g>
<g id="Pride_Flagpole">
	<path class="st7" d="M63.75,119.6c-5.35,13.76-15.8,35.2-34.63,37.96c-30.23,4.42-33.64-23.55-24.99-45.28l23.79-66.42
		c9.76,7.61,22.1,3.57,29.02,0.44c-18.27,45.84-20.73,54.45-21.67,61.12c-2.45,18.94,15.58,13.77,22.3,2.86L63.75,119.6z
		 M33.91,14.9c4-18.63,31.41-21.01,29.71-0.14C62.97,35.99,28.82,40.97,33.91,14.9z"/>
</g>
</svg>
