<?xml version="1.0" encoding="utf-8"?>
<!-- Generator: Adobe Illustrator 26.3.1, SVG Export Plug-In . SVG Version: 6.00 Build 0)  -->
<svg version="1.1" id="Layer_1" xmlns="http://www.w3.org/2000/svg" xmlns:xlink="http://www.w3.org/1999/xlink" x="0px" y="0px"
	 viewBox="0 0 1021.72 244.72" style="enable-background:new 0 0 1021.72 244.72;" xml:space="preserve">
<style type="text/css">
	.st0{fill:#D1252A;}
	.st1{fill:#F68A20;}
	.st2{fill:#FCE016;}
	.st3{fill:#057A40;}
	.st4{fill:#24428D;}
	.st5{fill:#742A82;}
	.st6{fill:none;stroke:#FFFFFF;stroke-miterlimit:10;}
	.st7{fill:#FFFFFF;}
</style>
<g id="Pride_Flag">
	<path class="st0" d="M942.3,50.82c0,0,5.46,4.97,13.99,7.8c8.53,2.83,40.76,5.62,52.14,9.39c11.38,3.77,13.28,7.56,13.28,7.56
		l-16.27,49.07c0,0-1.9-3.79-13.28-7.56c-11.38-3.77-43.61-6.56-52.14-9.39s-13.99-7.8-13.99-7.8L942.3,50.82z"/>
	<path class="st1" d="M939.59,59c0,0,5.46,4.97,13.99,7.8c8.53,2.83,40.76,5.62,52.14,9.39c11.38,3.77,13.28,7.56,13.28,7.56
		l-13.55,40.9c0,0-1.9-3.79-13.28-7.56s-43.61-6.56-52.14-9.39c-8.53-2.83-13.99-7.8-13.99-7.8L939.59,59z"/>
	<path class="st2" d="M936.88,67.18c0,0,5.46,4.97,13.99,7.8c8.53,2.83,40.76,5.62,52.14,9.39c11.38,3.77,13.28,7.56,13.28,7.56
		l-10.84,32.72c0,0-1.9-3.79-13.28-7.56s-43.61-6.56-52.14-9.39c-8.53-2.83-13.99-7.8-13.99-7.8L936.88,67.18z"/>
	<path class="st3" d="M934.17,75.35c0,0,5.46,4.97,13.99,7.8c8.53,2.83,40.76,5.62,52.14,9.39s13.28,7.56,13.28,7.56l-8.13,24.54
		c0,0-1.9-3.79-13.28-7.56s-43.61-6.56-52.14-9.39c-8.53-2.83-13.99-7.8-13.99-7.8L934.17,75.35z"/>
	<path class="st4" d="M931.46,83.53c0,0,5.46,4.97,13.99,7.8c8.53,2.83,40.76,5.62,52.14,9.39c11.38,3.77,13.28,7.56,13.28,7.56
		l-5.42,16.36c0,0-1.9-3.79-13.28-7.56s-43.61-6.56-52.14-9.39c-8.53-2.83-13.99-7.8-13.99-7.8L931.46,83.53z"/>
	<path class="st5" d="M928.75,91.71c0,0,5.46,4.97,13.99,7.8s40.76,5.62,52.14,9.39s13.28,7.56,13.28,7.56l-2.71,8.18
		c0,0-1.9-3.79-13.28-7.56s-43.61-6.56-52.14-9.39c-8.53-2.83-13.99-7.8-13.99-7.8L928.75,91.71z"/>
	<path class="st6" d="M942.3,50.82c0,0,5.46,4.97,13.99,7.8s40.76,5.62,52.14,9.39c11.38,3.77,13.28,7.56,13.28,7.56l-16.27,49.07
		c0,0-1.9-3.79-13.28-7.56c-11.38-3.77-43.61-6.56-52.14-9.39c-8.53-2.83-13.99-7.8-13.99-7.8L942.3,50.82z"/>
</g>
<g id="Prideful.li">
	<g id="Full_Logo_-_i">
		<path class="st7" d="M941.05,122.61c-5.35,13.76-15.8,35.2-34.63,37.96c-30.23,4.42-33.64-23.55-24.99-45.28l23.79-66.42
			c9.76,7.61,22.1,3.57,29.02,0.44c-18.27,45.84-20.73,54.45-21.67,61.12c-2.45,18.94,15.58,13.77,22.3,2.86L941.05,122.61z
			 M911.21,17.9c4-18.63,31.41-21.01,29.71-0.14C940.27,39,906.12,43.97,911.21,17.9z"/>
	</g>
	<g>
		<path class="st7" d="M93.51,132.65c7.97,3.26,13.74,3.41,21.47,2.93c69.62-4.31,61.9-108.78-18.45-103.81
			c-41.67,2.58-54.48,42.45-40.42,79.4c-9.81,3.36-27.65-1.54-28.53-19.77c-2.17-47.21,37.05-77.19,82.83-74.01
			c42.28,3.14,76.74,25.81,79.57,71.47c2.53,40.92-29.04,81.2-75.42,80.56c-7.53-0.29-20.3-4.25-27.94-14.3
			c-3.73,12.5-7.64,26.27-11.69,41.8C59.7,253.97,21.86,253.81,0,228.36c49.29-25.09,45.76-69.96,89.08-151.04
			c12.35-23.06,19.57-31.77,46.58-24.43C123.65,61.15,110.82,80.48,93.51,132.65z"/>
		<path class="st7" d="M208.91,111.23c-4.77-4.21-6.98-7.58-7-7.83c-3.68-6.79-4.44-15-1.22-19.71c4.84-6.81,16.58-3.28,19.93,2.27
			c3.37,5.8,1.85,9.65-3.52,20.01c14.42,10.38,29.16,9.72,31.68,10.06c-0.77,11.82-5.99,28.68-10.45,37.47
			c-6.92,13.7,4.82,21.24,15.04,12.34c6.9-5.94,14.64-14.43,21.02-28.6l3.57,5.04c-8.87,26.6-25.23,57.67-49.39,59.92
			c-13.19,1.32-26.82-4.35-27.73-19.07c-0.71-11.48,7-28.49,10.97-37.25c3.95-9.01,7.03-19.97,8.37-26.57l-5.75-3.9
			c-6.06,19.41-19.27,48.78-32.41,67.13c-7.83,11.01-33.59,23.87-34.82-12.12C159.29,179.67,197.55,138.23,208.91,111.23z"/>
		<path class="st7" d="M336.6,138.64c-9.84,27.16-23.69,58.33-46.9,59.76c-30.33,3.63-32.14-25.56-22.18-46.72l27.79-64.84
			c9.27,8.19,21.85,4.91,28.94,2.22c-21.03,44.64-24.02,53.09-25.36,59.68c-3.6,18.76,18.26,19.91,34.13-15.14L336.6,138.64z
			 M303.19,56.29c5.13-18.35,32.63-19.05,29.66,1.67C330.91,79.12,296.52,82,303.19,56.29z"/>
		<path class="st7" d="M452.37,131.47c-9.84,27.16-23.69,58.33-46.9,59.76c-18.15,2.13-26.26-7.39-27.54-20.09
			c-6.82,15.2-16.59,23.32-27.62,23.25c-17.79-0.15-32.54-19.78-18.18-58.99c19.71-53.82,68.51-62.6,70.2-35.41l31.31-72.82
			c9.27,8.19,21.84,4.91,28.94,2.22c-21.03,44.63-46.56,105.58-47.91,112.18c-3.6,18.76,18.26,19.91,34.13-15.14L452.37,131.47z
			 M382.17,146.58l1.12-2.07l12.04-28.05c1.23-4.33,2.13-10.15,0.18-13.29c-1.11-1.68-2.4-2.36-3.4-2.29
			c-8.98,0.56-18.77,12.43-25.4,26.62c-2.22,4.65-10.48,28.95-0.86,30.61C373.43,159.15,378.78,152.56,382.17,146.58z"/>
		<path class="st7" d="M526.76,103.07c-2.86,34.74-43.19,34.74-49.17,31.1c-2.18,13.41,1.17,22.97,13.27,24.23
			c16.39,1.74,38.11-15.63,47.02-37.48l3.57,5.04c-9.58,27.39-27.11,63.8-61.01,62.39c-11.51,0.21-24.06-4.27-31.48-14.83
			l-0.26-0.23c-3.35-5.55-5.25-11.95-5.71-19.44c-1.79-28.94,22.68-66.53,47.04-73.55C513.89,73.3,525.75,86.85,526.76,103.07z
			 M480.19,123.73c14.28,4.12,34.26-17.15,27.43-30.25C496.6,93.41,485.49,108.13,480.19,123.73z"/>
		<path class="st7" d="M554.91,80.53l14.05-31.93c10.54-23.95,25.95-29.91,36.68-30.58c26.2-1.62,31.69,30.35,5.74,31.96
			c2.17-1.39,11.66-18-1.25-16.2c-3.18,1.2-7.69,5.23-12.3,15.79l-13.82,31.66c5.46-0.84,10.11-2.63,13.65-6.11
			c-0.01-0.25,6.37,17.89-9.12,18.6c-2.75,0.17-6.5,0.15-10.26,0.13l-13.18,29.87c-7.71,17.01-14.15,30.43-19.24,41.27
			c-10.63,22.45-36.62,88.18-71.92,52.04c19.18-1.69,28.89-18.82,75.24-123.89c-7.98,0.49-14.19,1.38-16.02,4.25
			c-0.63-10.23-0.08-17.53,12.19-17.54L554.91,80.53z"/>
		<path class="st7" d="M713.86,115.28c-9.84,27.16-23.69,58.33-46.9,59.76c-18.9,2.17-26.8-8.11-27.64-21.58
			c-8.15,14.03-18.28,24.43-31.5,25.24c-30.33,3.63-32.14-25.56-22.18-46.72l27.8-64.84c9.27,8.19,21.85,4.91,28.94,2.22
			c-21.03,44.64-24.02,53.09-25.36,59.68c-3.63,18.26,16.5,19.77,32.35-11.52l23.2-54.04c9.27,8.19,21.85,4.91,28.94,2.22
			c-21.03,44.64-24.02,53.09-25.36,59.68c-3.6,18.76,18.27,19.91,34.13-15.14L713.86,115.28z"/>
		<path class="st7" d="M772.5,111.65c-9.84,27.16-23.69,58.33-46.9,59.76c-30.33,3.63-32.14-25.56-22.18-46.72L753.77,7.35
			c9.27,8.19,21.85,4.91,28.94,2.22c-21.03,44.63-46.56,105.58-47.91,112.18c-3.6,18.76,18.27,19.91,34.13-15.14L772.5,111.65z"/>
		<path class="st7" d="M786.86,165.61c-7.49,0.46-13.84-5.15-14.31-12.64c-0.46-7.49,5.15-13.84,12.64-14.31
			c7.49-0.46,13.84,5.15,14.31,12.64C799.96,158.79,794.34,165.15,786.86,165.61z"/>
		<path class="st7" d="M891.27,104.29c-9.84,27.16-23.69,58.33-46.9,59.76c-30.33,3.63-32.14-25.56-22.18-46.72L872.54,0
			c9.27,8.19,21.85,4.91,28.94,2.22c-21.03,44.63-46.56,105.58-47.91,112.18c-3.6,18.76,18.26,19.91,34.13-15.14L891.27,104.29z"/>
	</g>
</g>
</svg>
