<?xml version="1.0" encoding="utf-8"?>
<!-- Generator: Adobe Illustrator 26.3.1, SVG Export Plug-In . SVG Version: 6.00 Build 0)  -->
<svg version="1.1" id="Layer_1" xmlns="http://www.w3.org/2000/svg" xmlns:xlink="http://www.w3.org/1999/xlink" x="0px" y="0px"
	 viewBox="0 0 144.42 158.03" style="enable-background:new 0 0 144.42 158.03;" xml:space="preserve">
<style type="text/css">
	.st0{fill:#3F47CD;}
	.st1{fill:#00A3E8;}
	.st2{fill:#FA7F27;}
	.st3{fill:none;stroke:#FFFFFF;stroke-miterlimit:10;}
	.st4{fill:#FFFFFF;}
</style>
<g id="Flag">
	<path class="st0" d="M65.01,47.82c0,0,5.46,4.97,13.99,7.8c8.53,2.83,40.76,5.62,52.14,9.39c11.38,3.77,13.28,7.56,13.28,7.56
		l-16.27,49.07c0,0-1.9-3.79-13.28-7.56c-11.38-3.77-43.61-6.56-52.14-9.39s-13.99-7.8-13.99-7.8L65.01,47.82z"/>
	<path class="st1" d="M61.75,57.63c0,0,5.46,4.97,13.99,7.8c8.53,2.83,40.76,5.62,52.14,9.39s13.28,7.56,13.28,7.56l-13.01,39.26
		c0,0-1.9-3.79-13.28-7.56s-43.61-6.56-52.14-9.39s-13.99-7.8-13.99-7.8L61.75,57.63z"/>
	<path class="st2" d="M58.5,67.45c0,0,5.46,4.97,13.99,7.8c8.53,2.83,40.76,5.62,52.14,9.39s13.28,7.56,13.28,7.56l-9.76,29.44
		c0,0-1.9-3.79-13.28-7.56s-43.61-6.56-52.14-9.39s-13.99-7.8-13.99-7.8L58.5,67.45z"/>
	<path class="st1" d="M55.25,77.26c0,0,5.46,4.97,13.99,7.8c8.53,2.83,40.76,5.62,52.14,9.39s13.28,7.56,13.28,7.56l-6.51,19.63
		c0,0-1.9-3.79-13.28-7.56s-43.61-6.56-52.14-9.39s-13.99-7.8-13.99-7.8L55.25,77.26z"/>
	<path class="st0" d="M51.99,87.08c0,0,5.46,4.97,13.99,7.8s40.76,5.62,52.14,9.39s13.28,7.56,13.28,7.56l-3.25,9.82
		c0,0-1.9-3.79-13.28-7.56s-43.61-6.56-52.14-9.39s-13.99-7.8-13.99-7.8L51.99,87.08z"/>
	<path class="st3" d="M65.01,47.82c0,0,5.46,4.97,13.99,7.8c8.53,2.83,40.76,5.62,52.14,9.39c11.38,3.77,13.28,7.56,13.28,7.56
		l-16.27,49.07c0,0-1.9-3.79-13.28-7.56c-11.38-3.77-43.61-6.56-52.14-9.39s-13.99-7.8-13.99-7.8L65.01,47.82z"/>
</g>
<g id="Flagpole">
	<path class="st4" d="M63.75,119.6c-5.35,13.76-15.8,35.2-34.63,37.96c-30.23,4.42-33.64-23.55-24.99-45.28l23.79-66.42
		c9.76,7.61,22.1,3.57,29.02,0.44c-18.27,45.84-20.73,54.45-21.67,61.12c-2.45,18.94,15.58,13.77,22.3,2.86L63.75,119.6z
		 M33.91,14.9c4-18.63,31.41-21.01,29.71-0.14C62.97,35.99,28.82,40.97,33.91,14.9z"/>
</g>
</svg>
